<?xml version="1.0" encoding="utf-8"?>
<!-- Generator: Adobe Illustrator 17.0.0, SVG Export Plug-In . SVG Version: 6.00 Build 0)  -->
<!DOCTYPE svg PUBLIC "-//W3C//DTD SVG 1.1//EN" "http://www.w3.org/Graphics/SVG/1.1/DTD/svg11.dtd">
<svg version="1.1" id="Layer_1" xmlns="http://www.w3.org/2000/svg" xmlns:xlink="http://www.w3.org/1999/xlink" x="0px" y="0px"
	 width="535.003px" height="129.916px" viewBox="-70.383 -39.166 535.003 129.916"
	 enable-background="new -70.383 -39.166 535.003 129.916" xml:space="preserve">
<defs>
<style type="text/css"><![CDATA[
  :hover .heart>path {
    fill:#9a8cbd;
  }
]]></style>
</defs>
<g id="Daven-signature">
	<path d="M304.202-33.195c0.776,0.993,1.186,2.023,1.189,3.168c0.009,2.85,0.112,5.712-0.091,8.55
		c-0.763,10.636-1.482,21.277-2.509,31.889c-1.086,11.216-2.545,22.396-3.759,33.6c-0.687,6.341-1.207,12.702-1.801,19.054
		c-0.021,0.236-0.013,0.475-0.023,0.921c1.876-0.871,3.642-1.637,5.359-2.5c13.717-6.895,25.186-16.618,35.126-28.245
		c6.324-7.395,11.69-15.404,15.561-24.387c3.13-7.262,4.025-14.77,2.277-22.461c-1.969-8.655-7.271-14.789-15.067-18.821
		c-5.302-2.741-11.021-3.48-16.892-3.602c-11.171-0.234-22.005,1.604-32.558,5.193c-8.039,2.734-15.155,7.125-21.769,12.391
		c-0.829,0.661-1.632,1.354-2.452,2.027c-0.432,0.354-0.979,0.464-1.255-0.043c-0.173-0.316-0.134-1.034,0.102-1.252
		c6.042-5.593,12.205-10.993,19.954-14.207c7.18-2.977,14.614-4.925,22.274-6.107c7.95-1.227,15.964-1.686,23.87-0.239
		c13.7,2.509,23.214,10.237,26.959,24.005c2.076,7.634,1.393,15.293-1.502,22.723c-3.973,10.2-9.928,19.154-16.961,27.437
		c-6.029,7.102-12.703,13.523-20.175,19.091c-6.959,5.186-14.338,9.623-22.5,12.652c-9.926,3.684-20.12,4.895-30.607,3.271
		c-1.942-0.3-3.865-0.721-5.794-1.096c-0.221-0.043-0.432-0.141-0.621-0.388c0.435,0.011,0.87,0.007,1.304,0.032
		c9.751,0.573,19.347-0.32,28.737-3.107c0.986-0.293,1.946-0.675,2.934-0.957c0.601-0.171,0.767-0.523,0.82-1.116
		c0.622-6.868,1.206-13.741,1.935-20.598c0.943-8.88,2.008-17.748,3.021-26.621c1.667-14.616,2.825-29.271,3.504-43.966
		c0.082-1.773,0.469-3.532,0.738-5.293c0.036-0.229,0.189-0.445,0.312-0.654C303.895-32.952,304.007-33.016,304.202-33.195z"/>
	<path d="M400.065,37.801c0.676-0.845,1.247-1.586,1.848-2.302c3.18-3.793,7.222-6.329,11.772-8.118
		c1.041-0.411,2.094-0.796,3.149-1.173c0.369-0.132,0.754-0.23,1.14-0.298c0.719-0.127,1.336,0.048,1.7,0.737
		c0.355,0.677,0.071,1.22-0.399,1.723c-2.504,2.682-4.967,5.405-7.52,8.039c-1.241,1.28-2.605,2.45-3.995,3.571
		c-2.054,1.659-4.353,2.332-6.967,1.438c-0.202-0.07-0.654,0.125-0.761,0.323c-2.486,4.523-4.528,9.211-4.977,14.437
		c-0.052,0.598,0.155,1.22,0.241,1.83c0.674-0.184,1.505-0.179,1.992-0.587c1.664-1.402,3.392-2.795,4.76-4.468
		c4.373-5.352,8.601-10.823,12.872-16.259c1.124-1.43,2.201-2.898,3.306-4.345c0.202-0.264,0.424-0.516,0.654-0.755
		c0.478-0.495,0.983-0.945,1.746-0.618c0.795,0.341,0.917,1.061,0.783,1.764c-0.371,1.964-0.719,3.941-1.263,5.861
		c-0.992,3.504-2.119,6.97-3.187,10.452c-0.084,0.273-0.143,0.555-0.025,0.925c1.4-2.045,2.832-4.066,4.191-6.136
		c3.864-5.882,7.69-11.793,11.558-17.673c0.765-1.164,1.63-2.266,2.491-3.361c0.43-0.545,0.94-1.03,1.446-1.507
		c0.654-0.618,1.432-1.009,2.313-0.596c0.865,0.405,1.15,1.246,1.084,2.141c-0.257,3.543-0.476,7.089-0.854,10.62
		c-0.546,5.086-0.885,10.177-0.569,15.282c0.089,1.455,0.503,2.941,1.036,4.307c0.929,2.382,2.843,3.62,5.343,3.973
		c2.916,0.412,5.794,0.187,8.651-0.484c1.826-0.429,3.645-0.938,5.498-1.191c1.807-0.248,3.652-0.216,5.498-0.141
		c-5.173,2.423-10.249,5.082-16.114,5.123c-1.566,0.011-3.16-0.077-4.694-0.37c-4.401-0.839-6.948-3.727-7.816-7.98
		c-0.467-2.293-0.642-4.72-0.476-7.052c0.38-5.357,1.056-10.693,1.598-16.037c0.173-1.705,0.298-3.416,0.446-5.125
		c-0.087-0.034-0.175-0.068-0.26-0.102c-0.317,0.377-0.672,0.729-0.945,1.136c-3.888,5.829-7.734,11.686-11.652,17.495
		c-2.645,3.923-5.38,7.784-8.087,11.664c-0.292,0.42-0.61,0.905-1.036,1.125c-0.462,0.236-1.157,0.4-1.576,0.211
		c-0.335-0.152-0.646-0.929-0.562-1.346c0.337-1.693,0.77-3.371,1.277-5.021c1.362-4.439,2.784-8.861,4.175-13.291
		c0.107-0.341,0.155-0.7,0.071-1.157c-0.191,0.234-0.391,0.461-0.572,0.7c-4.209,5.562-8.341,11.184-12.656,16.661
		c-1.849,2.346-3.995,4.48-6.167,6.536c-0.904,0.855-2.172,1.479-3.383,1.811c-1.919,0.527-3.403-0.63-3.285-2.641
		c0.134-2.284,0.48-4.596,1.068-6.805c0.956-3.587,2.47-6.977,4.362-10.184c0.143-0.243,0.178-0.739,0.027-0.938
		c-1.364-1.809-2.078-3.898-2.72-6.027c-0.264-0.871-0.508-1.75-0.811-2.607c-0.357-1.005-0.735-1.171-1.614-0.555
		c-0.708,0.496-1.366,1.114-1.91,1.787c-2.186,2.712-3.499,5.887-4.526,9.173c-1.05,3.359-1.903,6.78-2.992,10.127
		c-0.674,2.07-1.584,4.066-2.477,6.055c-0.316,0.702-0.836,1.345-1.373,1.909c-1.461,1.534-3.65,1.448-4.72-0.38
		c-0.84-1.436-1.528-3.086-1.782-4.72c-0.672-4.346-1.072-8.734-1.578-13.105c-0.037-0.316-0.061-0.636-0.194-0.943
		c-0.522,2.041-0.911,4.129-1.605,6.109c-0.687,1.962-1.498,3.93-2.582,5.691c-1.755,2.848-4.742,2.868-6.802,0.236
		c-0.073-0.093-0.109-0.216-0.123-0.246c-2.306,2.048-4.549,3.982-6.725,5.991c-1.76,1.623-3.647,2.909-6.131,3.023
		c-2.835,0.13-5.111-1.371-5.965-4.089c-0.49-1.559-0.844-3.168-1.161-4.773c-0.162-0.823-0.189-1.684,0.53-2.384
		c0.196-0.191,0.182-0.62,0.221-0.946c0.893-7.341,3.665-13.757,9.231-18.775c2.247-2.025,4.804-3.239,7.941-2.857
		c2.259,0.277,4.084,1.329,5.17,3.287c0.84,1.514,1.646,3.186,1.889,4.871c0.706,4.905,0.191,9.646-2.946,13.775
		c-0.646,0.85-0.546,1.336,0.325,2.145c0.703,0.654,1.58,0.764,2.163,0.011c0.915-1.186,1.812-2.443,2.408-3.807
		c1.484-3.389,2.065-7.032,2.645-10.666c0.139-0.868,0.323-1.73,0.524-2.586c0.148-0.629,0.572-0.995,1.229-1.025
		c0.697-0.032,1.12,0.414,1.214,1.011c0.342,2.125,0.635,4.259,0.901,6.395c0.498,4.007,0.906,8.027,1.475,12.023
		c0.194,1.366,0.715,2.695,1.186,4.005c0.159,0.441,0.592,1.02,0.967,1.075c0.319,0.046,0.881-0.495,1.084-0.902
		c0.972-1.952,1.997-3.895,2.745-5.936c1.512-4.13,2.793-8.346,4.292-12.48c1.091-3.005,2.491-5.891,4.726-8.237
		c0.754-0.791,1.7-1.489,2.686-1.946c1.521-0.707,2.739-0.159,3.406,1.387c0.467,1.084,0.785,2.232,1.182,3.346
		C398.336,34.687,398.909,36.319,400.065,37.801z M362.843,35.158c-0.515-1.087-0.915-2.091-1.446-3.02
		c-0.911-1.587-2.375-2.4-4.162-2.248c-1.17,0.1-2.436,0.386-3.426,0.979c-1.302,0.779-2.507,1.825-3.527,2.961
		c-4.704,5.239-6.588,11.559-6.761,18.484c-0.05,2.018,0.918,3.295,2.864,3.859c3,0.87,6.725-0.298,8.515-3.05
		c1.512-2.323,2.741-4.852,3.886-7.386c0.572-1.268,0.701-2.743,0.986-4.132c0.358-1.752,0.61-3.529,1.025-5.266
		C361.067,35.199,361.541,34.969,362.843,35.158z M414.683,29.639c-5.411,1.609-9.782,4.586-12.908,9.425
		c1.42,0.37,2.698,0.212,3.704-0.637c2.095-1.771,4.114-3.639,6.11-5.525C412.676,31.873,413.654,30.73,414.683,29.639z
		 M362.854,39.391c-0.457,1.921-0.913,3.841-1.37,5.762c0.087,0.02,0.175,0.039,0.262,0.059
		C362.695,43.401,362.982,41.441,362.854,39.391z"/>
</g>
<g id="BethSignature">
	<path d="M-29.488,73.542c-2.447,3.416-5.293,4.802-5.502,8.825c-0.209,4.021,0.886,3.337,3.351,3.466
		c3.827,0.2,82.304-42.495,83.49-65.375C52.725,3.589,7.079,5.557,7.088,5.389s37.133-21.5,37.721-32.827
		c0.18-3.47-3.212-4.837-12.032-5.298C-0.003-34.45-70.252,1.214-70.352,3.144s-0.032,1.243,1.416,0.982S-4.03-32.024,32.566-30.113
		c4.754,0.248,9.216,0.255,9.077,2.959C41.071-16.113-0.788,5.357-0.919,7.905c-0.089,1.714,6.254-0.502,19.426,0.186
		c4.642,0.243,30.479,2.646,29.942,13.012c-0.893,17.236-73.108,61.182-79.406,61.078c-1-0.016-1.773,0.845-1.175-1.945
		C-32.135,80.239-28.652,72.373-29.488,73.542z"/>
	<path d="M-3.2,69.246c0.622,0.87,2.129,0.529,2.258-1.977c0.13-2.505-1.17-25.934-0.813-32.823s2.42-18.229,2.625-22.159
		S0.306-12.531,0.402-14.386s-1.856-2.139-2.531-2.175s0.111,3.646-0.148,8.654s0.938,13.754,0.681,18.714
		c-0.103,2.004-2.67,22.536-2.72,23.507s0.854,44.337,1.375,34.266"/>
</g>
<g id="Beth-signature">
	<path d="M142.346,59.469c-1.011-3.384-1.912-17.375-3.964-30.446c-0.458-2.496-1.327-4.959-2.324-7.304
		c-0.854-2.218-3.747-3.141-5.766-3.059c-6.315,0.255-10.638,26.489-11.112,30.884c-0.189,1.746-2.288-18.104-2.288-31.148
		s3.52-13.248,3.52-0.53c0,11.486-4.626,39.346-15.274,39.346c-10.031,0-12.621-18.707-12.621-34.136
		c0-1.898,0.169-21.462,1.673-21.462c2.37,0,2.181,21.65,2.181,24.571c0,9.116-1.206,31.755-18.584,31.289
		c-19.173-0.512-19.034-26.287-19.034-33.093c0-4.334,1.646-8.987,6.045-8.987c3.167,0,4.498,5.462,4.483,7.971
		c-0.144,24.633-28.34,31.025-28.34,32.018s2.094,0.934,5.473,0.934c0.676,0,24.781-9.618,24.781-33.441
		c0-3.971-3.135-9.427-7.01-9.427c-4.225,0-7.683,4.879-7.683,10.891s0.25,35.478,21.587,35.478c9.325,0,20.196-5.055,20.196-35.439
		c0-18.018-0.045-26.123-3.741-26.123c-3.52,0-4.048,14.955-4.048,21.904s0.285,39.336,14.827,39.336s17.38-36.025,17.38-43.398
		s-1.576-11.48-5.052-11.48c-3.003,0-3.042,10.925-3.042,18.723s3.517,36.723,3.991,37.509s2.37-0.643,2.37-0.643
		c0-26.377,6.704-39.691,10.181-39.691c3.344,0,4.399,4.239,4.927,9.362c0.59,4.241,1.382,8.65,1.937,12.895
		c0.678,5.204,0.961,12.746,2.646,16.921C141.328,61.348,142.863,61.198,142.346,59.469z"/>
	<path d="M85.189,29.203c-5.439-1.12-5.1-4.412,1.921-2.545c10.218,2.72,23.756,1.141,31.729-0.348
		c2.456-0.459-15.922,4.225-19.75,4.225C95.407,30.535,88.595,29.905,85.189,29.203z"/>
</g>
<g class="heart">
	<path fill="#FFFFFF" d="M191.244,90.75c36.515-34.593,50.195-36.427,50.195-51.916c0-7.171-6.023-19.218-15.776-19.218
		c-14.342,0-18.357,11.473-18.357,11.473s-4.314-8.756-12.334-9.179c-10.9-0.574-22.373,8.318-22.373,23.807
		C172.6,56.33,182.639,65.222,191.244,90.75z"/>
	<g class="letters">
		<path fill="#FFFFFF" d="M185.949,52.405c-4.204,4.661-7.129,5.987-8.637,5.987c-1.005-0.184-2.514-1.098-3.199-2.377
			c-0.274-0.503-0.411-1.097-0.411-1.828c0-1.645,0.548-4.433,1.462-6.854c1.371-3.748,4.57-9.141,8.912-9.141
			c1.736,0,3.291,0.823,4.524,2.239h0.274l1.005-2.422c0.823,0.229,1.691,0.503,2.514,0.777c-1.234,4.112-3.245,12.156-4.25,16.909
			c0,0.137,0.091,0.273,0.229,0.273c0.365,0,1.599-0.319,3.107-0.822c0.183,0.64,0.32,1.279,0.411,1.919
			c-1.919,0.731-4.204,1.188-5.621,1.188c-0.137,0-0.959-0.594-1.188-1.143c0.137-0.776,0.64-2.65,1.143-4.615L185.949,52.405z
			 M178.82,46.19c-1.051,2.468-1.737,5.347-1.737,7.54c0,1.325,0.686,2.011,1.462,2.011c2.148,0,7.266-5.026,8.135-7.357
			c0.274-0.822,1.097-4.113,1.417-5.484c-1.005-1.462-2.422-2.239-3.976-2.239C181.791,40.66,179.871,43.631,178.82,46.19z"/>
		<path fill="#FFFFFF" d="M196.052,41.438c-0.045-0.686-0.091-1.325-0.091-1.965c3.016-0.503,5.53-1.28,5.85-1.28
			c0.274,0,0.96,0.503,1.188,0.96c-0.32,1.234-0.731,3.062-1.234,4.936l0.32,0.138c3.656-4.251,7.357-5.987,9.414-6.033
			c1.188,0.229,2.331,1.052,2.971,2.331c0.229,0.457,0.274,1.006,0.274,1.462c0,2.012-1.554,7.77-3.656,13.711
			c-0.046,0.183,0,0.319,0.183,0.319c0.548,0,1.828-0.319,3.291-0.731c0.137,0.641,0.229,1.28,0.274,1.92
			c-1.736,0.64-4.021,1.051-5.895,1.051c-0.274,0-1.051-0.64-1.28-1.371c0.777-2.33,2.239-7.129,2.833-9.414
			c0.32-1.325,0.868-3.382,0.868-4.615c0-0.914-0.411-1.691-1.417-1.691c-2.833,0-8.089,4.981-8.82,7.632
			c-0.457,1.691-1.782,7.221-2.239,9.049c-1.051,0-2.102,0-3.153,0c1.005-4.113,2.788-11.653,3.93-16.771L196.052,41.438z"/>
		<path fill="#FFFFFF" d="M231.061,52.269c-3.427,4.021-6.9,6.078-8.911,6.124c-1.143-0.138-2.651-1.052-3.382-2.377
			c-0.32-0.503-0.457-1.188-0.457-1.828c0-1.965,0.64-4.661,1.508-6.992c1.417-3.839,4.616-9.003,9.186-9.003
			c1.919,0,3.519,0.777,4.616,1.646h0.229c0.777-3.29,1.736-7.586,2.513-11.014l-4.067,0.183c-0.045-0.686-0.091-1.325-0.091-1.919
			c3.793-0.503,6.307-1.234,6.626-1.234s0.869,0.549,1.188,1.006c-0.777,3.382-5.941,25.455-6.672,28.837
			c-0.046,0.137,0.091,0.273,0.229,0.273c0.32,0,1.417-0.229,2.833-0.73c0.183,0.64,0.32,1.279,0.411,1.873
			c-2.057,0.777-3.93,1.143-5.347,1.143c-0.229,0-1.051-0.594-1.28-1.143c0.137-0.731,0.594-2.422,1.143-4.753L231.061,52.269z
			 M231.93,47.973c0.274-1.097,1.005-4.113,1.279-5.53c-1.005-1.233-2.65-1.782-4.067-1.782c-2.65,0-4.707,2.88-5.85,5.805
			c-0.914,2.33-1.599,5.209-1.599,7.129c0,1.6,0.822,2.147,1.691,2.147C225.943,55.741,231.244,50.304,231.93,47.973z"/>
	</g>
</g>
</svg>
